<svg xmlns="http://www.w3.org/2000/svg" width="24.932" height="22" viewBox="0 0 24.932 22">
  <g id="check-pra-quem" transform="translate(-453 -2756)">
    <g id="Rectangle_34" data-name="Rectangle 34" transform="translate(453 2756)" fill="#fff" stroke="#d5e8f0" stroke-width="1">
      <rect width="22" height="22" stroke="none"/>
      <rect x="0.5" y="0.5" width="21" height="21" fill="none"/>
    </g>
    <path id="Path_137" data-name="Path 137" d="M1219.915,1162.526c-.01.06-.026.092-.019.119.024.084.063.233.156.157s-.006-.193-.138-.275m17.839-10.494c.192-.052.33-.1.472-.127a.211.211,0,0,1,.191.375,4.393,4.393,0,0,1-.449.371c-1.008.708-2,1.432-2.957,2.211-2.109,1.722-4.137,3.534-6.107,5.413-1.1,1.051-2.168,2.139-3.22,3.241-1.163,1.219-2.294,2.467-3.346,3.784-.112.141-.215.289-.438.218-.1-.031-.186.033-.278.065a.751.751,0,0,1-1.012-.33,4.216,4.216,0,0,1-.738-1.3c-.33-1.073-.869-2.052-1.291-3.083-.592-1.447-1.144-2.908-1.683-4.374a6.328,6.328,0,0,0-.579-1.117c-.178-.289-.358-.577-.53-.87a.507.507,0,0,1-.042-.554.482.482,0,0,0-.011-.505c-.18-.4-.377-.788-.568-1.182a1.712,1.712,0,0,1-.143-.3.365.365,0,0,1,.123-.436.408.408,0,0,1,.5-.025,1.007,1.007,0,0,1,.281.261,7.189,7.189,0,0,1,.9,1.437.4.4,0,0,0,.437.308.616.616,0,0,1,.527.3c.16.2.33.4.478.615a6.953,6.953,0,0,0,1.649,1.62,29.75,29.75,0,0,1,2.735,2.16c.184.171.283.173.47-.01a32.351,32.351,0,0,1,3.183-2.693,58.968,58.968,0,0,1,6.185-3.918c1.4-.807,2.824-1.586,4.279-2.3l.087-.044c.7-.336.962-.16.916.608,0,.046-.006.093-.011.19" transform="translate(-760.591 1608.34)" fill="#2fc4b2" fill-rule="evenodd"/>
  </g>
</svg>
