<svg xmlns="http://www.w3.org/2000/svg" width="134.265" height="94.625" viewBox="0 0 134.265 94.625">
  <g id="tipocali-logo" transform="translate(-357.256 -250.98)">
    <path id="Path_1" data-name="Path 1" d="M656.549,548.464c.784,0,1.607.195,1.607,2.061v19.305c0,1.621,0,2.47,1.638,1.364.151-.1.255.016.122.25-.654,1.139-1.855,2.718-3.415,2.718-1.357,0-1.7-1.016-1.7-2.421V552.067c0-1.337-.378-1.613-1.46-1-.1.058-.359.121-.162-.168C653.844,549.892,655.5,548.464,656.549,548.464Z" transform="translate(-262.414 -263.867)" fill="#f5f5f5"/>
    <path id="Path_2" data-name="Path 2" d="M663.181,425.671c-.236-.236-3.087,2.292-3.087,5.012,0,2.506,2.86,3.558,2.86,5.022,0,.869-1.188,1.948-1.036,2.1s2.828-2.4,2.828-4.54c0-1.84-2.587-3.423-2.587-5.009C662.159,426.5,663.372,425.862,663.181,425.671Z" transform="translate(-268.616 -154.937)" fill="#f5f5f5"/>
    <path id="Path_3" data-name="Path 3" d="M1271.416,425.671c-.236-.236-3.087,2.292-3.087,5.012,0,2.506,2.86,3.558,2.86,5.022,0,.869-1.188,1.948-1.036,2.1s2.828-2.4,2.828-4.54c0-1.84-2.587-3.423-2.587-5.009C1270.394,426.5,1271.607,425.862,1271.416,425.671Z" transform="translate(-808.117 -154.937)" fill="#f5f5f5"/>
    <path id="Path_4" data-name="Path 4" d="M1261.945,548.464c.784,0,1.606.195,1.606,2.061v19.305c0,1.621,0,2.47,1.638,1.364.151-.1.255.016.121.25-.653,1.139-1.855,2.718-3.414,2.718-1.357,0-1.7-1.016-1.7-2.421V552.067c0-1.337-.378-1.613-1.461-1-.1.058-.359.121-.162-.168C1259.239,549.892,1260.893,548.464,1261.945,548.464Z" transform="translate(-799.396 -263.867)" fill="#f5f5f5"/>
    <path id="Path_5" data-name="Path 5" d="M861.047,548.876c-1.928,0-6.863,2.018-6.863,6.2v16.61c0,.747-.226,3.633,2.852,3.633s6.911-3.772,6.911-8.182V551.911A2.946,2.946,0,0,0,861.047,548.876ZM860.725,553v17.706c0,1.3-.341,2.246-1.6,2.246-1,0-1.6-.218-1.6-2.807V553.117c0-1.188.3-2.375,1.6-2.375C860.784,550.741,860.725,552.515,860.725,553Z" transform="translate(-440.769 -264.232)" fill="#f5f5f5"/>
    <path id="Path_6" data-name="Path 6" d="M976.606,569.128c0,1.3-.34,2.246-1.6,2.246-1,0-1.6-.219-1.6-2.807V551.7c0-1.189.3-2.375,1.6-2.375,1.662,0,1.488,1.986,1.488,2.936,0,1.821.378,2.327.857,2.573.9.464,2.48.076,3.681-1.435-.995-.3-1.2-1.819-1.2-2.977,0-2.028-.717-2.962-2.9-2.962-1.927,0-6.863,2.017-6.863,6.2V570.1c0,.747-.226,3.633,2.853,3.633s6.911-3.772,6.911-8.182C979.828,565.272,976.606,567.054,976.606,569.128Z" transform="translate(-543.555 -262.973)" fill="#f5f5f5"/>
    <path id="Path_7" data-name="Path 7" d="M428.374,252.636c-3.783-2.513-9.576-2.382-12.524,1.9-2.728,3.959-1.269,6.28.219,7.392,1.038.776,1.591,1.262,2.2,1.757.7.564,1.6,1.067,1.549,2.3,1.572-1.572,1.827-3.317.709-4.383-.995-.948-5.914-2.778-3.708-6.395,1.486-2.437,6.4-2.835,10.134-.292,3.778,2.577,5.875,8.989.841,15.035-3.389,4.071-9.448,4.759-15.5,2.9-5.074-1.561-36.312-14.01-38.543-14.692-4.578-1.4-10.443-.793-14.153,4.759-3.427,5.129-2.122,11.491,2.639,13.911,4.176,2.124,10.635-1.047,11.575-4.253-1.112,1.069-5.391,4.248-10.171,2.009-2.9-1.359-5.68-6.535-3.041-10.883,2.515-4.143,7.613-4.918,12.289-2.881,1.319.574,8.329,3.149,16.5,6.115-4.219,2.71-4.507,4.5-4.507,6.566,0,.918,0,26.843,0,31.816,0,10.153-7.94,13.516-12.179,13.516-4.426,0-12.4-2.521-12.4-10.55,0-8.354,4.694-11.587,9.192-11.587,2.267,0,7.192.856,7.192,5.764,0,1.982-.435,2.451-1.866,4.631-.069.1-.106.188-.047.238s.087.024.174-.041c1.306-1.013,4.189-.864,4.189-5.258,0-4.147-4.667-7.183-9.326-7.183-7.4,0-12.555,4.315-12.555,13.174,0,7.935,6,13.128,14.659,13.128,5.77,0,16.193-7.653,16.193-17.468,0-4,.216-31.355.216-31.355a5.266,5.266,0,0,1,2.552-4.849c11.862,4.3,17.627,6.942,19.859,7.735,6.185,2.2,12.925,1.461,17.972-4.461C434.8,263.6,432.741,255.535,428.374,252.636Z" transform="translate(0 0)" fill="#f5f5f5"/>
    <path id="Path_8" data-name="Path 8" d="M1176.52,344.836V300.248a8.262,8.262,0,0,1,4.853-7.869c2.037-.984,8.585-2.211,10.455,2.292,2.014,4.848-2.985,7.762-4.9,8a6.25,6.25,0,0,0,1.655-6.971,4.3,4.3,0,0,0-5.977-2.661c-3.077,1.317-2.754,5.863-2.754,7.212v43.639a6.782,6.782,0,0,1-2.46,5.644,13.994,13.994,0,0,1,6.353-1.5c5.9,0,16.02,8.232,19.509,8.232,4.74,0,8.565-5.534,8.565-12.433,0-6.712-4.454-12.315-10.142-12.315-4.795,0-7.141,4.9-7.141,7.845,0,2.1.466,2.928,1.05,3.511-.757.959-1.152.7-2.249,2.968-.292-2.215-1.69-3.246-1.69-6.117,0-4.3,4.712-9.437,10.241-9.437,7.11,0,12.7,4.207,12.7,12.7,0,8.752-6.12,14.194-11.123,14.194-8.8,0-14.876-6.554-20.212-6.554-1.749,0-7.172-.114-9.323,2.245a.809.809,0,0,1-1.486-.4A9.4,9.4,0,0,0,1176.52,344.836Z" transform="translate(-723.071 -35.894)" fill="#f5f5f5"/>
    <path id="Path_9" data-name="Path 9" d="M610.861,599.352c4.365-4.089,4.7-7.12,4.7-11.715v-8.86c0-.592-.07-1.662.249-2.013a7.035,7.035,0,0,1,1.354-1.019c.709-.457.238-.2,1.3-.9,2.644-1.737,3.762-2.445,3.762-3.622V553.645c0-1.246-.556-2.5-2.11-2.5a3.861,3.861,0,0,0-2.193.783c-.306.2-1.574,1.124-2.366,1.654v-.813c0-1.866-.823-2.061-1.607-2.061-1.051,0-2.7,1.428-3.375,2.435-.2.289.06.226.162.169,1.083-.615,1.461-.338,1.461,1,0,.52.2,32.479.2,35.421,0,2.253-.249,6.744-2.476,8.714a7.019,7.019,0,0,1-9.953-.546c-3.641-3.816-1.215-8.721.39-9.255-3.743-.126-6.189,7.466-2.176,11.235C600.775,602.3,606.966,603,610.861,599.352Zm5.373-44.76c.82-.55.793-.543,1.1-.75.547-.368,1.009-.492,1.343-.1.26.3.212.793.212,1.52v16.086a6.991,6.991,0,0,1-.086,1.6,2.554,2.554,0,0,1-1.068,1c-.323.21.366-.228-.67.43-.748.4-1.51.194-1.51-.989,0-.335.008-13.219.008-17.023C615.564,555.247,615.7,554.951,616.234,554.591Z" transform="translate(-211.879 -265.855)" fill="#f5f5f5"/>
    <path id="Path_10" data-name="Path 10" d="M810.3,587.677c2.05-4.024,6.234-4.262,10.5-2.521,4.467,1.823,16.57,7.638,25.1,11.545,11.235,5.146,14.848,1.314,16.432-2.02,1.86-3.917,1.12-9.561-3.436-11.5-4.077-1.739-8.542.042-9.531,3.971,1.791-2.593,4.851-3.053,7.932-1.793,3.69,1.51,5.566,5.5,3.935,8.763-1.677,3.359-4.967,4.484-12.02,1.261-11.8-5.392-20.841-10-25.663-12.168-5.168-2.323-11.235-1.635-14.337,3.985-4.53,8.212,2.855,14.316,6.7,16,10.051,4.417,19.142.05,22.434-7.35,3.632-8.166,4.144-13.97,4.144-24.751,0-3.913-.019-9.867-.019-10.762,0-2.247.223-2.923,1.212-3.4.842-.408,1.6-.838,1.967-1v11.878a2.044,2.044,0,0,0,2.141,2.333,3.642,3.642,0,0,0,2.541-1.267.271.271,0,0,0-.154-.475c-.975-.275-1.171-1.112-1.171-2.733V546.208c0-.543.144-2.816-2.771-2.816-3.616,0-6.87,2.129-6.87,5.759,0,.687.329,2.549.272,3.6,1.411,0,3.26-.276,3.26-1.5,0-1.287-.269-2.042-.269-3.31,0-1.007.328-2.831,1.879-2.831,1.1,0,1.141.93,1.141,2.165V554.6c-1.46.626-4.069,2-4.846,2.48a3.571,3.571,0,0,0-1.27,1.14,3.825,3.825,0,0,0-.4,2.138c0,11.212-.1,9.455-.1,12.585,0,5.612.093,18.057-1.7,22-2.969,6.525-11.726,9.838-20.141,5.9C810.376,597.651,808.281,591.647,810.3,587.677Z" transform="translate(-399.625 -259.368)" fill="#f5f5f5"/>
  </g>
</svg>
